<svg xmlns="http://www.w3.org/2000/svg"
     viewBox="-2 -2 122 98"
     role="img"
     aria-label="vercher.dev favicon">
  <g fill="#fff600"
     stroke="#1e1e1e"
     stroke-width="0.75"
     stroke-linejoin="round">
    <!-- Row 0 -->
    <rect x="0"   y="0"  width="10" height="10"/>
    <rect x="12"  y="0"  width="10" height="10"/>
    <rect x="24"  y="0"  width="10" height="10"/>
    <rect x="84"  y="0"  width="10" height="10"/>
    <rect x="96"  y="0"  width="10" height="10"/>
    <rect x="108" y="0"  width="10" height="10"/>

    <!-- Row 1 -->
    <rect x="12"  y="12" width="10" height="10"/>
    <rect x="24"  y="12" width="10" height="10"/>
    <rect x="84"  y="12" width="10" height="10"/>
    <rect x="96"  y="12" width="10" height="10"/>

    <!-- Row 2 -->
    <rect x="12"  y="24" width="10" height="10"/>
    <rect x="24"  y="24" width="10" height="10"/>
    <rect x="36"  y="24" width="10" height="10"/>
    <rect x="72"  y="24" width="10" height="10"/>
    <rect x="84"  y="24" width="10" height="10"/>

    <!-- Row 3 -->
    <rect x="24"  y="36" width="10" height="10"/>
    <rect x="36"  y="36" width="10" height="10"/>
    <rect x="72"  y="36" width="10" height="10"/>
    <rect x="84"  y="36" width="10" height="10"/>

    <!-- Row 4 -->
    <rect x="24"  y="48" width="10" height="10"/>
    <rect x="36"  y="48" width="10" height="10"/>
    <rect x="48"  y="48" width="10" height="10"/>
    <rect x="72"  y="48" width="10" height="10"/>

    <!-- Row 5 -->
    <rect x="36"  y="60" width="10" height="10"/>
    <rect x="48"  y="60" width="10" height="10"/>
    <rect x="60"  y="60" width="10" height="10"/>
    <rect x="72"  y="60" width="10" height="10"/>

    <!-- Row 6 -->
    <rect x="48"  y="72" width="10" height="10"/>
    <rect x="60"  y="72" width="10" height="10"/>

    <!-- Row 7 -->
    <rect x="48"  y="84" width="10" height="10"/>
  </g>
</svg>